<svg width="100" height="37" viewBox="0 0 100 37" fill="none" xmlns="http://www.w3.org/2000/svg">
<g clip-path="url(#clip0_99_49256)">
<path fill-rule="evenodd" clip-rule="evenodd" d="M52.8125 5.5625C52.8125 6.56797 52.2781 7.46094 51.4766 7.95312L55.5055 16.0109C56.1453 17.2906 57.8047 17.6563 58.9227 16.7633L65.1875 11.75C64.8359 11.2789 64.625 10.6953 64.625 10.0625C64.625 8.50859 65.8836 7.25 67.4375 7.25C68.9914 7.25 70.25 8.50859 70.25 10.0625C70.25 11.6164 68.9914 12.875 67.4375 12.875H67.3883L64.175 30.5516C63.7812 32.6961 61.918 34.25 59.7453 34.25H40.2547C38.075 34.25 36.2117 32.6891 35.825 30.5516L32.6117 12.875H32.5625C31.0086 12.875 29.75 11.6164 29.75 10.0625C29.75 8.50859 31.0086 7.25 32.5625 7.25C34.1164 7.25 35.375 8.50859 35.375 10.0625C35.375 10.6953 35.1641 11.2789 34.8125 11.75L41.0773 16.7633C42.1953 17.6563 43.8547 17.2906 44.4945 16.0109L48.5234 7.95312C47.7219 7.46094 47.1875 6.575 47.1875 5.5625C47.1875 4.00859 48.4461 2.75 50 2.75C51.5539 2.75 52.8125 4.00859 52.8125 5.5625ZM51.5899 21.234H47.1875V23.0827H49.2977V29.2381H47V31.0958H53.5971V29.2381H51.5899V21.234Z" fill="#FADB14"/>
</g>
<defs>
<clipPath id="clip0_99_49256">
<rect width="40.5" height="36" fill="white" transform="translate(29.75 0.5)"/>
</clipPath>
</defs>
</svg>
