<svg width="163" height="84" viewBox="0 0 163 84" fill="none" xmlns="http://www.w3.org/2000/svg">
<path d="M0.665321 9.97953L0 84H163V11.4357C153.987 11.4357 147.509 1 138.716 1C129.923 1 103.954 47.8392 92.3112 47.8392C80.6684 47.8392 65.9384 11.5664 52.4329 21.1433C38.9274 30.7202 9.67813 9.97953 0.665321 9.97953Z" fill="url(#paint0_linear_71_1733)"/>
<path d="M0.665344 9.99575C9.67816 9.99575 41.302 30.9048 54.0655 21.1796C66.8289 11.4545 80.6684 47.9238 92.3113 47.9238C103.954 47.9238 129.923 1 138.716 1C147.509 1 153.987 11.4545 163 11.4545" stroke="#F5222D" stroke-width="2"/>
<defs>
<linearGradient id="paint0_linear_71_1733" x1="0" y1="-0.963955" x2="0" y2="84" gradientUnits="userSpaceOnUse">
<stop stop-color="#FF6969"/>
<stop offset="1" stop-color="white"/>
</linearGradient>
</defs>
</svg>
